<?xml version="1.0" encoding="UTF-8"?>
<svg id="Layer_2" data-name="Layer 2" xmlns="http://www.w3.org/2000/svg" viewBox="0 0 274.34 66.44">
  <defs>
    <style>
      .cls-1, .cls-2 {
        fill: #2c5630;
        stroke-width: 0px;
      }

      .cls-2 {
        fill-rule: evenodd;
      }
    </style>
  </defs>
  <g id="Layer_1-2" data-name="Layer 1">
    <g>
      <polygon class="cls-2" points="54.92 65.37 40.39 18.67 56.73 18.67 63.59 45.5 70.25 18.87 86.79 18.87 71.46 65.37 54.92 65.37"/>
      <path class="cls-2" d="m20.88,30.09h0c2.52,0,4.58,2.06,4.58,4.58v14.62c0,2.52-2.06,4.58-4.58,4.58h0c-2.52,0-4.58-2.06-4.58-4.58v-14.62c0-2.52,2.06-4.58,4.58-4.58m-3.83-12.26h8.15c10.39,0,17.1,8.24,17.1,18.25v11.53c0,10.14-6.47,18.53-17.1,18.53h-8.15C6.41,66.13,0,57.79,0,47.66v-11.63c0-9.96,6.75-18.19,17.05-18.19"/>
      <path class="cls-2" d="m208.59,30.09h0c2.52,0,4.58,2.06,4.58,4.58v14.62c0,2.52-2.06,4.58-4.58,4.58s-4.58-2.06-4.58-4.58v-14.62c0-2.52,2.06-4.58,4.58-4.58m-3.83-12.26h8.15c9.41,0,17.1,7.7,17.1,17.1v14.09c0,9.41-7.7,17.1-17.1,17.1h-8.15c-9.41,0-17.1-7.7-17.1-17.1v-14.09c0-9.41,7.7-17.1,17.1-17.1"/>
      <polygon class="cls-2" points="201.11 14.53 208.91 1.54 222.84 1.54 213.04 14.53 201.11 14.53"/>
      <rect class="cls-1" x="167.8" width="16.65" height="13.35"/>
      <rect class="cls-1" x="167.8" y="18.72" width="16.65" height="46.48"/>
      <path class="cls-2" d="m232.41,18.72h14.12c1.15.75,1.99,1.95,2.48,3.65,9.61-6.48,23.97-4.38,25.33,5.27v37.56h-16.65v-31.46c-.15-3.32-8.4-3.26-8.62.16v31.3h-16.65V18.72Z"/>
      <path class="cls-2" d="m108.57,50.33c.58-1.57.97-2.89.87-5.01-16.03-.67-6.55,14.1-.87,5.01m.05-32.19c-8.65-.21-16.12,1.67-22.47,5.52l3.44,10.89c3.98-1.74,20.7-7.91,19.87,2.29-11.94-.42-19.75,1.98-23.31,7.28-3.17,5.76-2.61,11.39.15,16.95,4.68,4.85,11.06,5.98,19.02,3.68,2.16-.8,3.7-1.92,5.14-3.52,1.02,1.14,1.36,2.59,1.46,4.14h14.26v-30.86c.06-10.8-9.42-16.3-17.56-16.38"/>
      <path class="cls-2" d="m165.77,20.57l-1.64,12.95c-5.64-2.47-18.88-5.53-18.88,4.54v7.86c0,10.22,13.53,7.48,19.51,5.29l1.85,11.99c-11.62,4.57-34.92,6.58-37.67-9.84v-20.33c1.83-18.77,23.58-16.17,36.82-12.46"/>
    </g>
  </g>
</svg>