<?xml version="1.0" encoding="UTF-8"?>
<svg id="Layer_2" data-name="Layer 2" xmlns="http://www.w3.org/2000/svg" viewBox="0 0 321.98 100.99">
  <defs>
    <style>
      .cls-1 {
        fill: #e61d2b;
        stroke-width: 0px;
      }
    </style>
  </defs>
  <g id="Layer_1-2" data-name="Layer 1">
    <path class="cls-1" d="m225.56,7.76s-6.04,2.4-13.06,10.14c-7.02,7.74-11.11,16.44-8.08,18.75,1.16.88,3.84,1.05,8.71-3.35,4.49-3.9,8.01-8.78,10.29-14.27,3.14-7.66,2.14-11.18,2.14-11.26m38.42,13.91c-7.8-4-13.5-8.9-19.43-11.93-5.66-2.91-9.32-4.12-13.89-3.51-.64.11-1.27.27-1.88.47,0,0,2.36,8.05-7.02,21.56-9.5,13.7-18.11,13.61-20.56,9.85-2.56-3.97.75-12.07,6.28-19.28,5.79-7.54,15.97-13.79,15.97-13.79,0,0-3.25-1.98-11.21,2.53-7.77,4.39-21.15,14.86-33.57,32.51-12.42,17.66-14.88,27.37-16.66,35.02-1.78,7.65-.16,15.84,8.32,15.84s18.35-12.93,21.14-17.43c5.18-8.38,8.55-21.22,1.51-19.46-3.47.87-6.28,4.71-8.06,8.41-1.12,2.38-1.98,4.87-2.55,7.43-2.46,1.01-4.77,2.36-6.87,4-2.33,1.73-4.52,3.66-6.52,5.76,0,0,.03-6.11,4.9-16.01,4.87-9.89,13.82-14.41,18.89-14.83,4.56-.37,10.51,3.51,5.47,17.8-5.04,14.29-19.89,31.66-35.5,31.88-14.4.2-23.82-18.18-3.78-50.25C181.13,12.82,207.15,1.94,215.6.74s11.2,2.52,11.2,2.52c5.09-2.09,10.58-2.99,16.07-2.65,10.32.7,18.3,8,28.83,13.13-2.74,2.62-5.35,5.37-7.71,7.94m46.35-11.93c-7.15,4.59-17.04,8.74-26.55,7.85-2.41,2.49-4.98,5.37-7.56,8.51,16.48,3.26,30.93-6.95,38.61-15.65,2.8-3.13,5.2-6.58,7.16-10.3-3.5,3.64-7.41,6.86-11.66,9.58m-21.95,46.44c.12-.22.23-.45.3-.69-.1-.78-.73-1.38-1.51-1.44-1.57-.07-3.71.23-9.33,6.44-4.66,5.14-8.67,10.82-11.94,16.94-3.21,5.87-4.52,10.25-2.67,11.38.6.31,1.3.38,1.95.2,1.25-.3,2.67-1.47,4.83-3.97,1.01-1.17,2.13-2.83,3.47-4.67,3.72-5.06,13.06-20.98,14.9-24.19m-58.35,6.76c.94-2.45,2.13-7.26-.35-9.15-2.66-2-9.46,2.7-9.5,7.53-.05,4.94,4.78,7.18,5.94,7.49.66.18.89.15,1.21-.38,1.02-1.77,1.93-3.6,2.7-5.49m-5.14,8.99c-1.68-.78-3.25-1.78-4.67-2.98-1.42-1.19-2.6-2.63-3.5-4.26-.09-.16-.19-.04-.29.1s-.52.52-4.15,5.83c-3.62,5.31-9.19,16.31-4.15,18.18,3.22,1.2,8.59-4.45,11.52-8.19,1.99-2.61,3.8-5.36,5.41-8.23.15-.32,0-.39-.16-.46m57.12,12.7c-1.37,2.19-2.93,6.39,1.57,3.77,5.5-3.18,13.34-15.07,13.34-15.07h3.55c-3.23,4.97-6.84,9.7-10.77,14.13-5.57,6.18-12.37,11.79-17.16,11.23-5.6-.65-3.84-8-3.84-8,0,0-8,8.52-13.54,7.91-7.48-.83-5.2-10.07-5.2-10.07,0,0-8.46,10.38-14.22,10.06-9.04-.52-6.76-11.52-4.25-19.26,1.35-4.14,2.59-7.39,2.59-7.39,0,0-.9.24-2.82.52-1.01.14-2.84.25-2.84.25,0,0-3.76,6.64-6.77,10.63-3.01,3.99-15.8,17.74-23.33,14.99-6.96-2.54-4.66-13.2-.61-21.67,5.92-12.35,22.55-30.09,32.15-27.74,9.95,2.41.23,20.56.23,20.56,0,0,0,.07.1.12.2.07.72.13,1.92-.1,1.24-.25,2.46-.62,3.64-1.08,0,0,10-20.94,21.04-34.64,11.05-13.7,33.08-37.29,41.73-31.59,2.09,1.4,1.15,6.23-1.7,12.1-1.28.42-2.59.77-3.91,1.05,1.91-3.46,3.17-6.38,3.54-8.41,1.3-7.08-15.22,7.85-27.03,23.89-7.11,9.67-13.43,19.9-18.9,30.59,2.13-1.3,4.17-2.75,6.09-4.35,5.27-4.37,10.27-9.04,14.99-14,4.54-4.65,8.81-9.57,12.76-14.73,1.26-.06,2.51-.19,3.75-.39-4.31,5.86-9.02,11.41-14.08,16.64-4.71,4.76-9.81,9.89-14.24,13.61-3.96,3.36-8.13,6.46-12.49,9.28,0,0-10.33,20.83-4.71,22.16,3.3.8,9.83-9.25,9.83-9.25,0,0,8.51-12.99,13.64-18.84,7-7.96,13.02-12.56,19.04-12.65,3.51-.06,5.57,3.66,5.57,3.66l1.65-2.55h10.16s-18.97,32.18-20.48,34.61m28.32-74.87c-7.15,4.59-17.04,8.74-26.55,7.85-2.41,2.49-4.98,5.37-7.56,8.51,16.48,3.26,30.93-6.95,38.61-15.65,2.8-3.13,5.21-6.58,7.17-10.3-3.5,3.64-7.41,6.86-11.66,9.58m-142.62,15.79h-9.66l-5.46,8.82h9.66l5.46-8.82Zm-45.73,30.54c4.11-5.63,15.45-25.37,15.45-25.37-.1-.78-.73-1.38-1.51-1.44-1.57-.07-4.19.46-9.39,6.96-5.2,6.51-9.23,11.68-12.18,17.07-3.22,5.88-4.63,10.02-2.78,11.15.6.3,1.29.37,1.94.2,1.2-.3,2.78-1.51,4.94-4,1.02-1.16,2.17-2.73,3.52-4.56m-51.82-26.7c-2.67-2.02-9.46,2.7-9.5,7.52-.04,4.95,6.11,6.46,6.9,6.5.23.02.47-.03.68-.14.14-.08.26-.21.32-.36.72-1.42,1.37-2.88,1.95-4.37.94-2.45,2.13-7.26-.36-9.15m-4.03,17.03c-1.84-.58-3.6-1.38-5.23-2.41-1.58-1.03-2.87-2.46-3.74-4.14-.09-.16-.2-.04-.29.1s-.64.82-4.27,6.15c-3.63,5.33-9.01,16.23-3.97,18.1,3.21,1.22,8.64-4.48,11.59-8.2,2.21-2.93,4.24-5.98,6.1-9.14.12-.32,0-.39-.18-.45m78.88,3.27h3.54s-17.73,25.65-27.74,24.46c-5.59-.65-3.93-7.55-3.93-7.55,0,0-7.85,9.19-15.07,7.33-6.54-1.68-2.32-12.56-2.32-12.56-.74.3-14.9,16.26-24.85,12.43-10.41-4.02-5-17.38-3.03-21.4,1.68-3.39,3.54-6.68,3.54-6.68,0,0-1.6.45-2.62.68-1.02.23-2.5.52-2.5.52,0,0-4.93,8-7.94,12-3.01,3.99-15.8,17.72-23.34,14.99-7.54-2.73-5.67-13.28-1.43-21.66,6.87-13.58,23.16-30.28,32.98-27.74,9.91,2.53,1.71,18.61,1.71,18.61,0,0,1.97.26,6.7-2.97,6.81-4.64,15.79-17.13,25.51-15.67,4.59.69,8.86,5.38,3.02,14.27-1.86,2.86-4.99,5.41-7.38,2.88-1.49-1.57-.19-4.43,1.38-6.39,1.24-1.62,3.2-2.52,5.23-2.4,0,0,1.61-3.66-2.48-3.61-3.31.06-11.68,7.77-16.41,15.56-4.33,7.15-10.9,19.33-4.31,21.99,6.05,2.44,17.55-11.22,22.88-18.37,5.33-7.16,17.47-23.37,27.66-24.02,3.51-.23,5.6,2.97,5.6,2.97l1.18-1.86h10.19s-19.18,32.02-20.68,34.44c-1.18,1.89-2.74,6.16,1.57,3.77,4.31-2.39,13.35-14,13.35-14m-5.54,51.3c-7.5-5.19-16.48-7.81-25.6-7.47-5,.14-9.64,2.65-12.49,6.77-3.88-6.78-11.56-10.94-23.44-10.85-19.18.22-38.21,9.07-53.29,9.06-14.45,0-24.98-9.08-24.64-25.21C.64,44.98,24.56,19.5,42.41,8.03,52.7,1.44,61.31-.52,66.93.11c4.1.46,9.04,5.2,5.93,12.19-4.58,10.21-10.89,9.38-10.66,4.49.13-3.18,2.25-5.18,3.84-6.28,1.01-.7,2.8-.9,3.73-.92.91-.76,1.57-6.35-5.76-4.52s-16.23,9.06-24.68,18.39c-8.45,9.33-21.6,26.97-24.85,45.5-1.52,8.59-.52,24.26,19.84,24.08,17.27-.14,42.74-11.52,66.13-11.28,9.08.09,16.99,2.54,23.15,6.34,6.05,3.73,13.31,9.17,15.88,12.89"/>
  </g>
</svg>